# xmcd
#
# Track frame offsets:
#  150
#  14312
#  28061
#  42954
#  56354
#  67234
#  80606
#  98277
#  111340
#  124838
#  136814
#  150211
#  161091
#  173984
#  191582
#  202761
#
# Disc length: 2866 seconds
#
# Revision: 1
# Processed by: cddbd v1.5.1PL0 Copyright (c) Steve Scherf et al.
# Submitted via: Collectorz.com Music Collector 6.9
#
DISCID=cb0b3010
DTITLE=Various Artist - Hillbilly Heaven
DYEAR=2004
DGENRE=Country
TTITLE0=Ernest Tubb - Rainbow At Midnight
TTITLE1=Roy Rogers - The Hills of Old Wyomin'
TTITLE2=Tex Ritter - I Deamed of A Hillbilly Heaven
TTITLE3=Carl Perkins - Turn Around
TTITLE4=Dolly Parton - It Wasn't God Who Made Honky Tonk Angels
TTITLE5=Patti Page - Mockin' Bird Hill
TTITLE6=Buck Owens - Country Girl (Leavin' Dirty Tracks)
TTITLE7=Jerry Lee Lewis - Goodnight Irene
TTITLE8=Tennessee Ernie Ford - Kentucky Waltz
TTITLE9=Freddy Fender - Coming Home Soon
TTITLE10=Charlie Feathers - Wedding Gown of White
TTITLE11=Johnny Cash - I Heard That Lonesome Whistle
TTITLE12=The Carter Family - Keep On The Sunny Side
TTITLE13=Hoyt Axton - Five Hundred Miles
TTITLE14=Gene Autry - Cool Water
TTITLE15=Eddy Arnold - The Prisoner's Song
EXTD=
EXTT0=
EXTT1=
EXTT2=
EXTT3=
EXTT4=
EXTT5=
EXTT6=
EXTT7=
EXTT8=
EXTT9=
EXTT10=
EXTT11=
EXTT12=
EXTT13=
EXTT14=
EXTT15=
PLAYORDER=
